<svg xmlns="http://www.w3.org/2000/svg" xmlns:xlink="http://www.w3.org/1999/xlink" viewBox="0 0 1350 738.146"><defs><style>.a{fill:url(#a);}.b{fill:rgba(255,255,255,0.1);}.b,.l,.m,.n{fill-rule:evenodd;}.c{fill:#efecec;}.d{fill:#f0ecec;}.e{fill:#f0edec;}.f{fill:#f0eded;}.g{fill:#efeded;}.h{fill:#f0eeee;}.i{fill:#f1eeee;}.j{fill:#f3f0f0;}.k{fill:#f0eeed;}.l{fill:#ff7378;}.m{fill:#d94d53;}.n{fill:#8c2e32;}.o{fill:#fff;}.p,.q,.r,.s{fill:none;stroke:#fff;stroke-miterlimit:10;}.p{stroke-width:3.118px;}.q{stroke-width:0.5px;}.r{stroke-width:2.989px;}.s{stroke-linecap:round;stroke-linejoin:round;stroke-width:0.364px;}</style><radialGradient id="a" cx="0.488" cy="1.082" r="0.995" gradientTransform="translate(0.247 0.359) scale(0.493 0.668)" gradientUnits="objectBoundingBox"><stop offset="0" stop-color="#006c76"/><stop offset="1" stop-color="#17394c" stop-opacity="0"/></radialGradient></defs><rect class="a" width="1350" height="666"/><g transform="translate(318.516 742.004)"><path class="b" d="M.485-68.3s131.18-157.37,363.773-157.523c210.285-.138,339.871,132.621,363.051,156.68C666.961-69.148.485-68.3.485-68.3Z"/><path class="c" d="M363.995-188.078a18.822,18.822,0,0,0-1.388,4.14c-1.314,8.425-3.069,16.762-4.283,25.221-1.24,8.639-1.916,17.314-2.534,25.974-.612,8.582-.009,17.247-.2,25.869-.075,3.371.692,5.955,3.838,7.662,19.269-4.691,38.714-9.038,58.489-11.22,1.617-5.245,1.66-5.27.56-7.191-1.165-2.036-2.394-4.035-3.644-6.018a419.161,419.161,0,0,0-34.319-46.876c-5.044-5.974-9.835-12.309-16.518-17.561M150.66-134.527c-5.517,1.253-9.7,5.073-14.223,8.053A379.857,379.857,0,0,0,94.482-94.389c-11.81,10.4-23.054,21.353-33.938,32.7-2.695,2.811-5.41,4.16-9.469,2.865,3.1-3.651,6.015-7.246,9.1-10.687C68.124-78.379,76.926-86.4,85.764-94.294a359.023,359.023,0,0,1,39.208-30.763c6.214-4.162,12.445-8.284,18.881-12.077,1.5-.885,2.67-1.659,2.9-3.695.311-2.77,2.688-4.536,3.914-6.891-.1-1.749.1-3.347,2.011-4.075,1.3.7,1.328,2.692,2.978,3.045a7.915,7.915,0,0,1,5.015,1.021c2.148.265,3.828-.931,5.59-1.857a404.747,404.747,0,0,1,59.684-25.081,394.45,394.45,0,0,1,57.583-14.707c9.576-1.679,19.1-3.87,28.748-4.871,12.177-1.264,24.374-2.9,36.686-2.249,2.5.131,2.506.008,5.523-1.313-10.768-12.516-23.59-22.45-36.921-32.406,2.958-1.426,4.847-.414,6.754.553,7.933,4.019,14.536,9.915,21.432,15.43,4.836,3.867,9.024,8.424,13.424,12.625,3.077-.8,2.708-3.525,3.394-5.381,3.328-9.008,6.946-17.863,12.092-25.985a47,47,0,0,1,4.13-5.667,5.546,5.546,0,0,1,5.294-2.238c1.181,2.146-.279,3.608-1.244,5.048a115.935,115.935,0,0,0-15.087,33.791c2.581,5.018,6.759,5.753,11.922,5.7,10.908-.117,21.724,1.487,32.563,2.756a379.714,379.714,0,0,1,45.229,8.3,453.982,453.982,0,0,1,75.725,25.563,356.209,356.209,0,0,1,46.474,24.145,7.282,7.282,0,0,0,1.412.523c-.348-7.436-20.641-30.192-38.922-43.635,2.091-1.92,4.093-.6,5.858.258,5.273,2.567,9.715,6.39,14.026,10.319a145.9,145.9,0,0,1,27.739,34.734c3.94,6.759,7.365,6.956,12.81,1.446,4.6-4.662,9.5-8.863,15.77-11.129a7.294,7.294,0,0,1,4.75-.278c.374,1.927-1.18,2.044-2.063,2.5a53.554,53.554,0,0,0-15.381,11.861c-3.47,3.85-3.252,7.689.808,10.6,14.469,10.393,28.269,21.618,41.66,33.419a235.8,235.8,0,0,1,25.245,26.126c-4.292,1.081-6.769.064-9.493-3.436-3.975-5.107-8.875-9.518-13.8-13.847-6.012-5.282-11.809-10.813-18-15.911-10.022-8.25-20.1-16.406-31.115-23.6,9.393,18.628,19.729,36.755,26.5,56.65-5.3.9-5.129.829-6.917-3.27-6.586-15.092-12.795-30.381-21.616-44.356-.8-1.274-1.333-2.723-2.063-4.049-2.534-4.6-4.795-4.893-8.386-.828-4.424,5.008-8.874,10.011-12.972,15.29-6.45,8.309-12.82,16.7-18.437,25.63-1.782,2.835-3.616,5.655-5.154,8.627-1.422,2.746-3.24,4.192-7.073,3.133,11.53-21.521,26.9-39.841,42.626-58.073-.142-2.547-3.692-5.035.356-8.094-66.978-42.058-139.063-64.947-217.4-67.715-.2,3.159,1.816,4.4,3.3,5.888,17.878,17.972,32.725,38.377,46.5,59.64a20.942,20.942,0,0,1,1.573,3.163,7.508,7.508,0,0,0,6.2,5.038c4.517.761,5.087,1.805,6.642,7.208,11.265-3.025,22.894-.98,34.472-2.131,10.661-1.06,21.583-1.271,32.31.754a2.708,2.708,0,0,1,1.966,1.652c-.4,2.874-2.709,2.284-4.574,2.295-8,.045-16,.021-24,.022-7.5,0-15-.03-22.5.015-5.632.033-11.176,1.561-16.853,1.049-1.2-.109-2.209.623-3.485,1.567,7.859,15.851,27.457,55.361,34.712,71.637-5.122,1.555-8.779-5.871-10.82-9.858-7.194-14.059-21.859-45.029-29.583-58.9-2.245-.9-5.058.169-6.984-2.012-.559-.633-1.569-.513-2.391-.352-10.519,2.05-21.06,3.988-31.539,6.229-6.613,1.415-13.136,3.269-19.687,4.972-1.746.453-3.714.695-5.117,1.7-3.108,2.225-5.864,4.715-4.975,9.439,1.544,8.2,3.361,35.98,4.015,44.273-1.54.7-2.666,2.143-4.512-3.122-3.413-9.732-2.5-36.6-6.246-46.507-1.426-.745-2.769.218-4.1.658a686.633,686.633,0,0,0-74.154,28.989c-3.964,1.848-8.113.764-12.481.884.859-2.528,3.13-2.127,4.6-2.9a477.046,477.046,0,0,1,46.748-21.295c10.5-4.162,21.2-7.721,31.9-11.284,6.176-2.056,8.279-5.069,8.28-11.827,0-7.615.064-15.23-.014-22.845-.112-10.955,1.415-21.736,2.82-32.561,1.016-7.822,2.343-15.548,4.05-23.23.317-1.425.634-3.138-1.144-4.008-1.535-.752-1.465-2.559-2.677-3.921-5.418.219-10.962-.354-16.624.748-4.987.97-10.2.482-15.336,1.054-8.7.968-17.4,1.969-26,3.458a434.459,434.459,0,0,0-44.931,9.918,427.152,427.152,0,0,0-47.441,16.317c-11.684,4.867-23.083,10.308-34.419,15.943-3.849,1.914-4.075,5.815-6.1,8.694-.642.914.525,2.236,1.112,3.21a212.644,212.644,0,0,0,35.19,43.4c11.328,10.922,23.9,20.2,35.757,30.361-4.127,1.44-4.839,1.259-7.666-1.062-8.1-6.652-16.6-12.857-24.28-19.972-5.863-5.429-12.073-10.489-17.389-16.6-8.566-9.852-16.833-19.877-23.877-30.927-1.492-2.34-2.054-5.482-5.017-6.711-1.82-.182-2.54,1.276-3.449,2.446-.874-.622-.351-2.1-1.563-2.446"/><path class="d" d="M150.66-134.524c1.211.4.689,2.143,1.563,2.873.91-1.374,1.628-3.087,3.449-2.873A256.828,256.828,0,0,0,148.783-96c-1.5,15.024-2.643,30.123-2.167,45.322.171,5.473-.363,5.755-5.859,4.979.088-6.962-.705-14.013.528-21.03a27.213,27.213,0,0,0,.373-4.7c.05-14.621,2.409-28.883,4.6-43.183a182.2,182.2,0,0,1,4.4-19.91"/><path class="e" d="M160.67-147.729a7.915,7.915,0,0,0-5.015-1.021c.7-5.291,3.568-9.752,5.746-14.4,6.5-13.856,14.886-26.583,24.209-38.632,1.714-2.215,3.381-5.715,7.844-4.492A225.862,225.862,0,0,0,174.7-178.723c-5.143,8.841-10.172,17.744-13.4,27.557a9.776,9.776,0,0,0-.632,3.437"/><path class="f" d="M152.677-151.795c-1.908.728-2.108,2.326-2.012,4.075-3.721-5.231-5.517-11.4-7.793-17.274a195,195,0,0,1-9.834-32.6c-.527-2.669.288-5.419-.857-7.965-.629-1.4-.06-2.489,1.212-2.745,1.376-.277,2.172.875,2.184,2.162.032,3.413,1.344,6.539,1.922,9.813,1.791,10.135,5.751,19.537,9.067,29.168,1.8,5.229,5.113,9.82,6.111,15.363"/><path class="c" d="M56.642-93.836c-.086,2.4-3.2,4.984-6,4.967-3.344-.021-7.042-3.061-6.963-5.726.1-3.192,2.935-5.574,6.448-5.408,3.757.177,6.633,2.9,6.516,6.167"/><path class="c" d="M540.632-190.383c.022,2.269-2.311,6.009-3.794,6.081-2.816.137-7.08-3.408-7.162-5.956-.067-2.088,2.62-4.814,4.883-4.954,2.87-.177,6.048,2.351,6.073,4.829"/><path class="c" d="M135.523-222.867c3.481-.057,6.138,1.625,6.041,3.823-.114,2.574-3.87,6.252-6.388,6.255-2.677,0-4.515-2.2-4.506-5.41.011-3.61,1.046-4.606,4.853-4.668"/><path class="c" d="M537.646-113.072c.191,2.5-.792,4.023-3.657,3.93-3.308-.106-6.228-2.784-6.3-5.9-.06-2.427,3.013-5.226,5.747-5.234,2.112-.007,4.231,3.533,4.215,7.2"/><path class="c" d="M200.642-218.8c3.478-.01,5.221,1.845,5.34,5.762.081,2.679-1.626,3.35-3.834,3.367-3.317.026-6.539-2.368-6.475-4.788.074-2.791,1.837-4.331,4.969-4.341"/><path class="f" d="M685.4-76.879c3.72,1.42,6.312,3.106,6.251,7.187-.023,1.53.1,3.217-1.612,3.864-1.753.662-3.66.77-5.024-.873-1.714-2.063-3.585-4.166-.977-6.978.622-.67.781-1.782,1.362-3.2"/><path class="f" d="M250.48-149.725c1.379-3.367,2.828-6.056,6.629-6.116,1.813-.029,3.886-.288,4.394,2.165a4.4,4.4,0,0,1-2.3,5.082c-2.9,1.55-5.692,1.247-8.724-1.131"/><path class="c" d="M316.3-238.632a6.866,6.866,0,0,1-3.829,3.132c-2.348.917-4.8.791-6.316-1.278-1.288-1.755-.52-3.922.775-5.58.979-1.254,5.43-1.156,6.966.01a4.017,4.017,0,0,1,1.043,1.066c.507.848.911,1.758,1.361,2.65"/><path class="c" d="M389.792-249.608c3.8-3.708,7.646-3.581,10.069.117,1.474,2.249.829,4.12-1.728,5.014-3.417,1.193-6.3-.511-8.341-5.131"/><path class="g" d="M639.543-145.876c-1.284,3.324-3.728,3.447-6.317,3.174-2.674-.283-3.247-2.869-4.146-4.618-1.155-2.244.589-3.5,2.757-3.4,3.281.15,6.111,1.326,7.706,4.844"/><path class="g" d="M485.009-8.566c-.039,3.166-2.037,4.025-4.278,4.6-2.313.593-3.592-1.384-4.883-2.562-1.656-1.511-.593-3.1,1.243-3.685,2.779-.892,5.5-.789,7.918,1.647"/><path class="f" d="M199.388-64.9c-1.424,4.065-3.779,5.971-6.915,5.478-2.444-.384-3.9-1.861-3.724-4.436a2.727,2.727,0,0,1,3.939-2.505c2.21.905,5.078-1.613,6.7,1.463"/><path class="h" d="M95.622-157.076c1.884-2.078,3.5-3.245,5.7-1.21-1.979,3.744-1.979,3.744-5.7,1.21"/><path class="i" d="M272.644-216.613c-1.88,1.311-3.622.865-5.412.544a2.559,2.559,0,0,1,2.154-3.381c1.4-.286,2.923.447,3.258,2.837"/><path class="j" d="M655.6-108.453c-2.323,1.236-4.073,2.951-6.84.963,2.116-2.013,4.019-2.792,6.84-.963"/><path class="k" d="M477.644-210.616c-1.812,1.479-3.261,2.831-4.9.006,1.475-1.8,2.883-2.164,4.9-.006"/><path class="l" d="M545.884-74.027a26.843,26.843,0,0,1-.209,37.942C529.594-20,490.724-18.867,490.724-18.867s1.146-38.879,17.218-54.951A26.843,26.843,0,0,1,545.884-74.027Z"/><path class="m" d="M541.944-70.087c8.3,8.3,8.111,21.964-.421,30.5-13.032,13.031-44.279,14.205-44.279,14.205s1.181-31.255,14.205-44.279C519.981-78.2,533.645-78.386,541.944-70.087Z"/><path class="n" d="M536.128-64.271a11.66,11.66,0,0,1-.091,16.482,11.66,11.66,0,0,1-16.482.091,11.661,11.661,0,0,1,.091-16.482A11.66,11.66,0,0,1,536.128-64.271Z"/><path class="l" d="M572.331-243.832a17.934,17.934,0,0,1,4.107,25.014c-8.793,12.391-34.267,17.488-34.267,17.488s-3.6-25.736,5.193-38.119A17.934,17.934,0,0,1,572.331-243.832Z"/><path class="m" d="M570.177-240.8a14.418,14.418,0,0,1,3.134,20.133c-7.126,10.041-27.575,14.31-27.575,14.31s-2.719-20.718,4.4-30.754A14.417,14.417,0,0,1,570.177-240.8Z"/><path class="n" d="M567-236.315a7.792,7.792,0,0,1,1.784,10.867,7.79,7.79,0,0,1-10.846,1.9,7.79,7.79,0,0,1-1.784-10.866A7.791,7.791,0,0,1,567-236.315Z"/><path class="l" d="M9.352-130.844a14.783,14.783,0,0,1,20.812-1.878c9.66,7.971,12.326,29.222,12.326,29.222s-21.375,1.413-31.031-6.554A14.783,14.783,0,0,1,9.352-130.844Z"/><path class="m" d="M11.719-128.891a11.885,11.885,0,0,1,16.741-1.371c7.829,6.46,10.114,23.53,10.114,23.53s-17.2.994-25.022-5.463A11.884,11.884,0,0,1,11.719-128.891Z"/><path class="n" d="M15.213-126.008a6.423,6.423,0,0,1,9.041-.816,6.423,6.423,0,0,1,.916,9.032,6.422,6.422,0,0,1-9.041.815A6.422,6.422,0,0,1,15.213-126.008Z"/><path class="b" d="M666.147-329.085c46.035-7.89,87.671,10.569,92.921,41.2s-27.863,61.9-73.9,69.789-87.671-10.569-92.92-41.2S620.112-321.2,666.147-329.085Z"/><path class="o" d="M577.391-207.038c21.166,9.308,50.335,1.1,57.469-22.441.561-1.852-2.334-2.643-2.893-.8-6.524,21.535-33.7,29.163-53.062,20.648-1.751-.77-3.28,1.814-1.514,2.59"/><path class="o" d="M730.433-276.034c10.082,2.181,19.664,8.688,27.125,15.618,7.975,7.408,12.569,16.86,12.4,27.854-.232,14.551-7.484,29.318-16.416,40.58-1.188,1.5.921,3.634,2.121,2.121,9.9-12.484,17.993-29.047,17.26-45.291-.474-10.524-5.148-19.722-12.736-26.909-7.932-7.511-18.129-14.525-28.952-16.867-1.882-.407-2.687,2.485-.8,2.894"/><path class="o" d="M748.734-272.044c5.915-14.249-1.439-30.42-13.283-39.174-14.8-10.942-34.922-11.771-52.609-11.469-19.125.327-38.772,3.564-55.309,13.705-13.915,8.533-26.068,22.327-27.733,39.145-2.031,20.524,15,31.584,31.253,39.445,1.856.9,3.491-1.877,1.624-2.779-13.6-6.579-29.048-15.125-29.811-32.125-.729-16.245,10.885-30.622,23.676-39.23,14.125-9.506,31.049-13.5,47.847-14.605,15.94-1.052,33.554-1.082,48.643,4.8,16.044,6.259,29.952,23.714,22.6,41.428-.792,1.911,2.32,2.744,3.1.855"/><path class="o" d="M631.17-230.369c23.508,9.072,50.321,10.242,73.832.553,19.833-8.174,36.4-22.921,44.056-43.243.731-1.941-2.379-2.779-3.1-.856-7.59,20.158-24.727,34.591-44.571,42.088-22.306,8.429-47.328,6.856-69.358-1.646-1.933-.746-2.771,2.365-.855,3.1"/><path class="o" d="M695.175-255.174a346.715,346.715,0,0,1-69.149,2.688,1.43,1.43,0,0,0-1,2.413C635.3-238.514,650.9-235.205,665.8-236.416c13.046-1.062,29.395-3.9,34.661-17.689a1.436,1.436,0,0,0-.987-1.738,4.529,4.529,0,0,0-4.1.342c-1.624.821-.195,3.26,1.426,2.44l1.92-.056-.987-1.739c-5.095,13.335-23.4,15.419-35.724,15.834-13.005.438-26.115-3.069-34.985-13.049q-.5,1.2-1,2.412a350.429,350.429,0,0,0,69.9-2.789c1.794-.252,1.031-2.976-.751-2.726"/><path class="o" d="M674.549-320.308c3.625-11.721,13.162-24.395,25.292-28.11,1.84-.564,1.056-3.461-.8-2.893-13.17,4.034-23.445,17.458-27.387,30.205-.571,1.849,2.324,2.639,2.893.8"/><path class="o" d="M576.992-219.428c4.578,4.276-.533,11.222-5.655,11.348-4.241.1-9.828-1.177-13.185-3.908-1.486-1.208-3.62.9-2.122,2.122,4.669,3.8,13.993,6.552,19.768,3.984,5.66-2.518,7.936-11.351,3.315-15.667-1.41-1.317-3.536.8-2.121,2.121"/><path class="o" d="M745.2-193.788c9.521-.82,11.774,9.813,6.2,15.91a15.637,15.637,0,0,1-15.4,4.511,1.5,1.5,0,0,0-.8,2.892A18.519,18.519,0,0,0,756.4-180c3.869-8.144-1.933-17.585-11.2-16.786-1.909.164-1.926,3.166,0,3"/><path class="o" d="M716.875-165.823A137.155,137.155,0,0,0,736.7-148.99a1.516,1.516,0,0,0,2.2-.9,167.752,167.752,0,0,0,5.634-21.28c1.086-5.563,2.847-11.841,2.148-17.536A20.131,20.131,0,0,0,727-206.6c-9.132-.135-18.692,7.671-20.046,16.823-1.425,9.635,3.4,17.484,9.924,23.95A1.5,1.5,0,0,0,719-167.944c-5.5-5.454-9.52-11.362-9.223-19.51.374-10.244,11.452-18.006,21.2-15.61a16.327,16.327,0,0,1,10.929,8.735c2.507,5.027,1.875,9.885,1.008,15.237a179.035,179.035,0,0,1-6.9,28.408l2.2-.9c-7.044-4.713-13.205-10.426-19.218-16.363-1.375-1.358-3.5.763-2.121,2.121"/><path class="o" d="M705.4-360.046c-3.793,1.442-7.288,5.61-6.225,9.874a7.976,7.976,0,0,0,10.094,5.609,8.7,8.7,0,0,0,5.92-9.57c-.731-4.52-5.564-7.021-9.789-5.913a1.5,1.5,0,0,0,.8,2.893c6.523-1.712,8.235,7.74,2.274,9.7a4.919,4.919,0,0,1-6.239-3.033c-.918-2.728,1.47-5.716,3.965-6.664,1.787-.68,1.012-3.581-.8-2.893"/><path class="p" d="M697.742-283.093c0-9.753-6.986-17.671-15.592-17.671s-15.593,7.918-15.593,17.671,6.987,17.672,15.593,17.672S697.742-273.339,697.742-283.093Z"/><path class="q" d="M736.1-277.976c0-4.722-2.563-8.555-5.721-8.555s-5.722,3.833-5.722,8.555,2.564,8.555,5.722,8.555S736.1-273.254,736.1-277.976Z"/><path class="o" d="M644.916-250.369l2.883,11.03a.3.3,0,0,0,.578-.159q-1.441-5.516-2.882-11.031a.3.3,0,0,0-.579.16"/><path class="o" d="M660.768-250.422a39.057,39.057,0,0,0,2.072,13.069c.123.365.7.208.578-.159a38.665,38.665,0,0,1-2.05-12.91.3.3,0,0,0-.6,0"/><path class="o" d="M676.75-252.319a31.472,31.472,0,0,1,2.115,10.9.3.3,0,0,0,.6,0,31.891,31.891,0,0,0-2.136-11.056c-.138-.357-.718-.2-.579.159"/><path class="r" d="M651.1-280.092c0-9.35-6.7-16.94-14.947-16.94s-14.948,7.59-14.948,16.94,6.7,16.94,14.948,16.94S651.1-270.743,651.1-280.092Z"/><path class="s" d="M735.262-184.028a8.005,8.005,0,0,0-5.787-9.723,8,8,0,0,0-9.722,5.787,8,8,0,0,0,5.786,9.722A8,8,0,0,0,735.262-184.028Z"/><path class="o" d="M683.855-274.807c-2.372.508-4.843-1.646-5.52-4.808s.7-6.137,3.07-6.644,4.844,1.644,5.52,4.807-.7,6.138-3.07,6.645m1.521-22.007c-6.256,0-11.328,5.748-11.328,12.838s5.072,12.838,11.328,12.838,11.327-5.748,11.327-12.838-5.072-12.838-11.327-12.838"/><path class="o" d="M637.855-272.807c-2.372.508-4.843-1.646-5.52-4.808s.7-6.137,3.07-6.644,4.844,1.644,5.52,4.807-.7,6.138-3.07,6.645m1.387-20.439c-6,0-10.859,5.509-10.859,12.306s4.862,12.307,10.859,12.307,10.859-5.51,10.859-12.307-4.862-12.306-10.859-12.306"/><path class="b" d="M707.654-365A13.367,13.367,0,0,1,721.1-351.724a13.367,13.367,0,0,1-13.443,13.278,13.368,13.368,0,0,1-13.443-13.278A13.368,13.368,0,0,1,707.654-365Z"/><path class="b" d="M716.483-212.632c13.733-4.721,28.823,2.909,33.677,17.028,7.413,21.564-8.248,56.945-8.248,56.945S707.8-156.943,700.393-178.5C695.54-192.615,702.749-207.91,716.483-212.632Z"/></g></svg>