<svg xmlns="http://www.w3.org/2000/svg" viewBox="0 0 40 40"><defs><style>.a,.f{fill:none;}.b{fill:#4285f4;}.b,.c,.d,.e,.f{fill-rule:evenodd;}.c{fill:#34a853;}.d{fill:#fbbc05;}.e{fill:#ea4335;}</style></defs><g transform="translate(-2 -3)"><g transform="translate(-2 -1)"><g transform="translate(4 4)"><rect class="a" width="40" height="40" rx="2"/><rect class="a" width="40" height="40" rx="2"/><rect class="a" width="40" height="40" rx="2"/><rect class="a" width="40" height="40" rx="2"/></g><g transform="translate(15 15)"><path class="b" d="M17.64,9.2a10.341,10.341,0,0,0-.164-1.841H9v3.481h4.844a4.14,4.14,0,0,1-1.8,2.716V15.82h2.909A8.777,8.777,0,0,0,17.64,9.2Z"/><path class="c" d="M9,18a8.592,8.592,0,0,0,5.956-2.18l-2.909-2.258A5.43,5.43,0,0,1,3.964,10.71H.957v2.332A9,9,0,0,0,9,18Z"/><path class="d" d="M3.964,10.71a5.321,5.321,0,0,1,0-3.42V4.958H.957a9.011,9.011,0,0,0,0,8.084L3.964,10.71Z"/><path class="e" d="M9,3.58a4.862,4.862,0,0,1,3.44,1.346l2.581-2.581A8.649,8.649,0,0,0,9,0,9,9,0,0,0,.957,4.958L3.964,7.29A5.364,5.364,0,0,1,9,3.58Z"/><path class="f" d="M0,0H18V18H0Z"/></g></g></g></svg>