<svg xmlns="http://www.w3.org/2000/svg" viewBox="0 0 22.415 21.903">
  <defs>
    <style>
      .cls-1 {
        fill: none;
        stroke: #17394c;
        stroke-linecap: round;
        stroke-linejoin: round;
        stroke-miterlimit: 10;
        stroke-width: 2px;
      }
    </style>
  </defs>
  <g id="Group_549" data-name="Group 549" transform="translate(0 0.903)">
    <path id="Path_464" data-name="Path 464" class="cls-1" d="M5,10.2v9.264a1.98,1.98,0,0,0,1.887,1.973h9.607a1.924,1.924,0,0,0,1.887-1.973V10.2" transform="translate(-0.569 -1.437)"/>
    <path id="Path_465" data-name="Path 465" class="cls-1" d="M1,7.545C1,5.829,1.686,4.8,3.23,4.8H9.578" transform="translate(0 -0.669)"/>
    <path id="Path_466" data-name="Path 466" class="cls-1" d="M22.6,7.545c0-1.716-.686-2.745-2.23-2.745H9.3" transform="translate(-1.18 -0.669)"/>
    <path id="Path_467" data-name="Path 467" class="cls-1" d="M10.1,4.62c0-2.6,1.131-3.62,3.394-3.62" transform="translate(-2.347 -0.903)"/>
    <path id="Path_468" data-name="Path 468" class="cls-1" d="M16.694,4.62c0-2.6-1.131-3.62-3.394-3.62" transform="translate(-1.927 -0.903)"/>
    <line id="Line_294" data-name="Line 294" class="cls-1" y2="7.72" transform="translate(8.806 8.763)"/>
    <line id="Line_295" data-name="Line 295" class="cls-1" y2="7.72" transform="translate(12.923 8.763)"/>
  </g>
</svg>
