<svg xmlns="http://www.w3.org/2000/svg" viewBox="0 0 28.351 25.404">
  <defs>
    <style>
      .cls-1, .cls-2 {
        fill: none;
      }

      .cls-1 {
        fill-rule: evenodd;
      }

      .cls-2 {
        stroke: #fff;
        stroke-linecap: round;
        stroke-linejoin: round;
        stroke-miterlimit: 10;
        stroke-width: 2px;
      }

      .cls-3, .cls-4 {
        stroke: none;
      }

      .cls-4 {
        fill: #fff;
      }
    </style>
  </defs>
  <g id="Group_648" data-name="Group 648" transform="translate(-903.648 -701)">
    <g id="Group_580" data-name="Group 580" transform="translate(903.648 701)">
      <g id="Path_14" data-name="Path 14" class="cls-1" transform="translate(-15.338 -22.239)">
        <path class="cls-3" d="M25.429,45.55c2.581,1.927,7.4,1.2,8.019-1.583a2.737,2.737,0,0,0-.9-2.887,1.623,1.623,0,0,1,.383-2.724c1.629-.727,4.72-.379,5.477-3.442.585-2.272-1.859-4.405-7.159-4.233-6.585.254-10.325,2.925-9.534,7.675C22.263,41.833,23.812,44.345,25.429,45.55Z"/>
        <path class="cls-4" d="M 28.9833927154541 46.6310920715332 L 28.9833927154541 44.6310920715332 C 30.21507263183594 44.6310920715332 31.32681274414063 44.15336227416992 31.48919486999512 43.56055450439453 C 31.60254669189453 42.88443756103516 31.40235710144043 42.72638320922852 31.30508232116699 42.64955139160156 C 30.51709175109863 42.02718353271484 29.81084251403809 40.66499328613281 29.98564147949219 39.26564407348633 C 30.13577270507813 38.06376266479492 30.91090202331543 37.0667724609375 32.1122932434082 36.53032302856445 C 32.72576141357422 36.25639343261719 33.38053131103516 36.11173248291016 34.01375198364258 35.97184371948242 C 35.73620223999023 35.59130477905273 36.23505020141602 35.35713195800781 36.46303176879883 34.43485260009766 L 36.46537017822266 34.42537307739258 L 36.46781158447266 34.41591262817383 C 36.50875091552734 34.25695419311523 36.50388336181641 34.11940383911133 36.35330200195313 33.92512512207031 C 35.90514373779297 33.34690475463867 34.45355224609375 32.67167282104492 31.83748245239258 32.67167282104492 C 31.6676197052002 32.67167282104492 31.49234199523926 32.67454147338867 31.31645965576172 32.68018341064453 C 27.92205238342285 32.81179809570313 25.43660926818848 33.64073181152344 24.3175220489502 35.01452255249023 C 23.6835823059082 35.79274368286133 23.47663116455078 36.77838134765625 23.68486213684082 38.02773284912109 L 23.68618202209473 38.03566360473633 L 23.68744277954102 38.04360198974609 C 24.17945098876953 41.14947509765625 25.52682113647461 43.12890243530273 26.62575149536133 43.9472541809082 C 27.2077522277832 44.38181304931641 28.06703186035156 44.63106155395508 28.98325157165527 44.6310920715332 L 28.9833927154541 46.6310920715332 M 28.98319435119629 46.6310920715332 C 27.71091270446777 46.63105010986328 26.40882110595703 46.28128433227539 25.42917251586914 45.54981231689453 C 23.81154251098633 44.3452033996582 22.26275253295898 41.83271408081055 21.71207237243652 38.35653305053711 C 20.92047119140625 33.6069221496582 24.66033172607422 30.93503379821777 31.24574279785156 30.68142318725586 C 31.44728469848633 30.67487907409668 31.64420318603516 30.67167472839355 31.83747673034668 30.67167472839355 C 36.72700881958008 30.67167472839355 38.96744537353516 32.72959899902344 38.40459060668945 34.9147834777832 C 37.64741134643555 37.97795486450195 34.55681228637695 37.62911224365234 32.92774200439453 38.35653305053711 C 31.29868125915527 39.08395385742188 32.12350082397461 40.74737167358398 32.54470062255859 41.08004379272461 C 32.96590042114258 41.41273498535156 33.76708221435547 42.22154235839844 33.44846343994141 43.96660232543945 C 33.06406021118164 45.69640731811523 31.06328582763672 46.63115692138672 28.98319435119629 46.6310920715332 Z"/>
      </g>
      <g id="Path_18" data-name="Path 18" class="cls-1" transform="translate(-35.604 -0.515)">
        <path class="cls-3" d="M50.986,3.539c-.172,3.579,2.685,3.958,4.13,1.1C57.319.269,51.227-1.417,50.986,3.539Z"/>
        <path class="cls-4" d="M 53.00297546386719 4.251866340637207 C 53.104248046875 4.128960609436035 53.21761703491211 3.961880445480347 53.32991027832031 3.739973306655884 C 53.65608215332031 3.092733144760132 53.61846160888672 2.717643260955811 53.5448112487793 2.598053216934204 C 53.50709915161133 2.5368332862854 53.44194030761719 2.515113115310669 53.39760208129883 2.515113115310669 C 53.27219009399414 2.515113115310669 53.0219612121582 2.843833208084106 52.9835090637207 3.634703159332275 C 52.9710807800293 3.893215656280518 52.98229598999023 4.096035003662109 53.00297546386719 4.251866340637207 M 52.75258636474609 6.534770011901855 C 51.73529052734375 6.534643173217773 50.889892578125 5.533949375152588 50.98582077026367 3.538653135299683 C 51.08882904052734 1.419653534889221 52.26104354858398 0.5151115655899048 53.39760589599609 0.5151115655899048 C 54.91934585571289 0.5151115655899048 56.37689208984375 2.137832641601563 55.11594009399414 4.640023231506348 C 54.47619247436523 5.90428352355957 53.56024932861328 6.534871101379395 52.75258636474609 6.534770011901855 Z"/>
      </g>
      <g id="Path_20" data-name="Path 20" class="cls-1" transform="translate(-21.03 -1.77)">
        <path class="cls-3" d="M34.39,5.345c-.069-4.371-5.2-3.511-3.958.482C31.465,9.165,34.459,8.614,34.39,5.345Z"/>
        <path class="cls-4" d="M 32.39049530029297 5.379753112792969 L 32.39044189453125 5.376140117645264 C 32.38397979736328 4.966134548187256 32.31010437011719 4.710172176361084 32.24250793457031 4.566146850585938 C 32.23167037963867 4.704075336456299 32.24613952636719 4.92386531829834 32.34286880493164 5.235560417175293 C 32.35856628417969 5.28630542755127 32.37447738647461 5.334322929382324 32.39049530029297 5.379753112792969 M 32.61970138549805 8.078695297241211 C 31.80190086364746 8.078625679016113 30.90834999084473 7.36615514755249 30.43217086791992 5.826500415802002 C 29.76342391967773 3.671644926071167 30.94949340820313 2.429210901260376 32.19384384155273 2.429210901260376 C 33.25497817993164 2.429210901260376 34.3585090637207 3.332813262939453 34.39019012451172 5.344650268554688 C 34.42727661132813 7.106408596038818 33.57516860961914 8.078775405883789 32.61970138549805 8.078695297241211 Z"/>
      </g>
      <g id="Path_22" data-name="Path 22" class="cls-1" transform="translate(-8.537 -7.027)">
        <path class="cls-3" d="M16.013,11.806c-1.583-2.994-5.472-.482-3.27,2.1C15.393,16.969,17.631,14.9,16.013,11.806Z"/>
        <path class="cls-4" d="M 14.0362491607666 10.44504833221436 C 14.74684906005859 10.44510173797607 15.50063228607178 10.83744049072266 16.01287078857422 11.80624771118164 C 17.06980133056641 13.83014869689941 16.48123359680176 15.41314601898193 15.20692253112793 15.41314601898193 C 14.53090190887451 15.41314601898193 13.66179656982422 14.96746635437012 12.74320220947266 13.90571784973145 C 11.25316619873047 12.15957736968994 12.55057144165039 10.44493675231934 14.0362491607666 10.44504833221436 Z"/>
      </g>
      <g id="Path_24" data-name="Path 24" class="cls-1" transform="translate(-0.47 -16.137)">
        <path class="cls-3" d="M3.268,24.736C.894,23.153-.965,26.7,1.995,27.8,4.852,28.867,5.953,26.492,3.268,24.736Z"/>
        <path class="cls-4" d="M 2.07569432258606 24.33579254150391 C 2.440814018249512 24.33586311340332 2.84665322303772 24.45528602600098 3.268450498580933 24.73648262023926 C 5.489807605743408 26.18890380859375 5.119162082672119 28.06539916992188 3.306653499603271 28.06539916992188 C 2.928696870803833 28.06539916992188 2.487896919250488 27.98374938964844 1.994990587234497 27.79965400695801 C -0.4392032623291016 26.89389991760254 0.3851032257080078 24.3354606628418 2.07569432258606 24.33579254150391 Z"/>
      </g>
      <g id="Path_16" data-name="Path 16" class="cls-1" transform="translate(-49.786 -5)">
        <path class="cls-3" d="M75.483,12.041c5.163-4.061-1.549-10.016-4.13-2.753C70.424,11.938,72.351,14.484,75.483,12.041Z"/>
        <path class="cls-4" d="M 73.18865203857422 11.02350234985352 C 73.31314849853516 11.00731563568115 73.66681671142578 10.92082118988037 74.25028991699219 10.46621608734131 C 75.1396484375 9.765381813049316 75.54257202148438 8.977376937866211 75.32808685302734 8.35780143737793 C 75.23014831542969 8.074892044067383 75.00967407226563 7.869551658630371 74.80384063720703 7.869551658630371 C 74.47295379638672 7.869551658630371 73.78354644775391 8.424585342407227 73.23934173583984 9.953078269958496 C 73.05225372314453 10.48942852020264 73.12081146240234 10.87485790252686 73.18865203857422 11.02350234985352 M 73.14125061035156 13.02716064453125 C 71.486328125 13.02695655822754 70.68846893310547 11.18359470367432 71.35337829589844 9.287371635437012 C 72.23456573486328 6.808308124542236 73.59673309326172 5.869549751281738 74.80384063720703 5.869549751281738 C 77.13282012939453 5.869549751281738 78.88375854492188 9.365896224975586 75.48349761962891 12.040771484375 C 74.59249114990234 12.73595333099365 73.79924011230469 13.02724170684814 73.14125061035156 13.02716064453125 Z"/>
      </g>
    </g>
    <g id="Group_620" data-name="Group 620" transform="translate(930.585 724.991) rotate(180)">
      <line id="Line_290" data-name="Line 290" class="cls-2" x2="9.421" y2="9.421" transform="translate(0 0)"/>
      <line id="Line_291" data-name="Line 291" class="cls-2" y1="9.421" x2="9.421" transform="translate(0 0)"/>
    </g>
  </g>
</svg>
