<svg xmlns="http://www.w3.org/2000/svg" xmlns:xlink="http://www.w3.org/1999/xlink" viewBox="0 0 312.561 577.68"><defs><style>.a{fill:url(#a);}.b{fill:#fff;}.c{fill:#ff7378;}.c,.d,.e{fill-rule:evenodd;}.d{fill:#d94d53;}.e{fill:#8c2e32;}.f{fill:rgba(255,255,255,0.1);}</style><linearGradient id="a" x1="1" y1="1" x2="0" gradientUnits="objectBoundingBox"><stop offset="0" stop-color="#006c76"/><stop offset="1" stop-color="#006c76" stop-opacity="0"/></linearGradient></defs><path class="a" d="M0,0H294.668a15,15,0,0,1,15,15V561.126a15,15,0,0,1-15,15H0a0,0,0,0,1,0,0V0A0,0,0,0,1,0,0Z" transform="translate(1.446 0)"/><g transform="translate(0 248.922)"><path class="b" d="M128.842,328.757c6.787-16.613,14.445-32.822,22.693-48.752,6.314-12.2,13.3-24,20.279-35.812,4.028-6.815,3.554-11.258-1.838-17.463-6.073-6.991-12.092-14.03-18.24-20.957-8.843-9.966-16.044-21.08-23.392-32.137-5.308-7.99-10.255-16.141-14.818-24.553-.846-1.562-1.922-3.387-4.248-2.767-2.009.535-3.387-1.18-5.585-1.462-4.8,4.523-10.345,8.421-14.662,13.95-3.8,4.87-8.976,8.58-13.235,13.2-7.211,7.828-14.4,15.691-21.106,23.919a528.368,528.368,0,0,0-33.327,44.954c-7.53,11.545-14.7,23.3-21.363,35.36V264.729q.732-1.26,1.469-2.515A479.654,479.654,0,0,1,42.588,202.77c7.449-9.182,14.446-18.794,22.5-27.409,10.168-10.876,20.062-22.106,31.879-31.336,2.4-1.873,2.307-1.992,4.021-5.612-19.869-2.9-39.565-1.784-59.745-.285,1.577-3.669,4.118-4.248,6.64-4.882,10.489-2.641,21.253-2.5,31.983-2.938,7.524-.31,15,.532,22.395.878,2.183-3.193-.327-5.4-1.178-7.647-4.133-10.924-7.877-21.938-9.634-33.5a57.273,57.273,0,0,1-.731-8.5c0-2.446.653-4.806,3.074-6.278,2.8,1.027,2.623,3.534,2.886,5.626,1.9,15.1,6.606,29.355,13.114,43.053,6.373,2.547,10.794-.113,15.489-4.282,9.919-8.811,21.127-15.969,32.088-23.452A461.811,461.811,0,0,1,205.5,67.739a552.154,552.154,0,0,1,89.9-36.957q8.547-2.663,17.155-5.061v6.207A517.013,517.013,0,0,0,119.722,130.4c2.337,3.058,5.176,2.588,7.726,2.772,30.749,2.231,60.658,9.114,90.27,17.637a25.465,25.465,0,0,1,3.968,1.649c3.332,1.612,6.237,1.8,9.706-.32,4.753-2.906,6.109-2.4,11.848,1.316,7.926-11.765,20.232-19.166,29.94-29.461,8.94-9.48,18.8-18.388,30.258-25.088a3.292,3.292,0,0,1,3.123-.053c1.926,2.957-.664,4.258-2.367,5.756-7.306,6.423-14.668,12.785-22.009,19.168-6.881,5.985-13.792,11.94-20.639,17.965-5.143,4.523-9.013,10.35-14.631,14.41-1.19.858-1.531,2.334-1.949,4.218,14.467,6.03,44.666,18.613,67.6,28.539v7.63c-18.956-7.772-53.516-22.833-70.519-28.981-2.778.966-4.508,4.19-8.016,3.726-1.018-.135-1.85.78-2.475,1.584-8.02,10.275-16.149,20.464-23.979,30.883-4.941,6.575-9.449,13.482-14.1,20.272-1.241,1.809-2.855,3.6-3.341,5.643-1.077,4.523-1.621,9.005,2.965,12.633,7.963,6.3,31.793,30.344,39.01,37.433-.858,1.868-.737,4.094-6.632.735-10.9-6.21-31.5-31.6-42.841-37.7-1.9.454-2.367,2.409-3.234,3.871A845.345,845.345,0,0,0,136.1,328.757Zm-11.362-189a22.92,22.92,0,0,0,2.029,4.908c5.516,8.781,10.557,17.834,16.193,26.567,5.755,8.919,12.056,17.42,18.4,25.862,6.286,8.365,13.753,15.837,20.456,23.9,2.621,3.154,5.386,4.914,9.636,3.97,13.943-19.68,28.323-39.185,44.733-56.966-2.7-6.1-2.681-6.161-5.224-7.047-2.694-.939-5.417-1.794-8.147-2.616a509.863,509.863,0,0,0-68.9-15.643c-8.368-1.3-16.782-3.021-25.816-3.021Q119.173,139.673,117.481,139.755ZM294.083,1.783C300.12.16,306.341-.067,312.561.014V5.839A201.158,201.158,0,0,0,288.5,6.22C288.887,2.789,291.777,2.4,294.083,1.783Z" transform="translate(0 0)"/></g><path class="c" d="M56.282,7.906a27.388,27.388,0,0,1-.213,38.713C39.66,63.027,0,64.188,0,64.188S1.169,24.518,17.568,8.12A27.389,27.389,0,0,1,56.282,7.906Z" transform="translate(162.788 356.076) rotate(-70)"/><path class="d" d="M45.609,6.227c8.469,8.468,8.276,22.41-.43,31.115C31.882,50.638,0,51.836,0,51.836S1.205,19.946,14.494,6.657C23.2-2.048,37.141-2.241,45.609,6.227Z" transform="translate(170.419 351.774) rotate(-70)"/><path class="e" d="M20.345,3.434a11.958,11.958,0,0,1-16.91,16.91,11.958,11.958,0,0,1,16.91-16.91Z" transform="translate(185.23 336.594) rotate(-70)"/><g transform="translate(1.445 250.808)"><path class="f" d="M0,325.319V206.742C49.111,141.172,114.14,81.149,200.16,39.09A520.035,520.035,0,0,1,309.669,0V310.318a15,15,0,0,1-15,15Z"/></g></svg>