<svg xmlns="http://www.w3.org/2000/svg" viewBox="0 0 180.158 28.278">
  <defs>
    <style>
      .cls-1 {
        fill: #fff;
      }
    </style>
  </defs>
  <g id="Group_521" data-name="Group 521" transform="translate(-29.613 -29.396)">
    <g id="Group_473" data-name="Group 473" transform="translate(29.613 30.129)">
      <path id="Path_446" data-name="Path 446" class="cls-1" d="M16.146,7.334a7.977,7.977,0,0,0,0-1.195A6.862,6.862,0,0,0,9.275,0H6.751A6.771,6.771,0,0,0,0,6.647H0V26.5a.634.634,0,0,0,1.075.448l3.854-3.854a4.153,4.153,0,0,1,2.987-1.225c1.822.015,4.406.015,4.406.015A6.745,6.745,0,0,0,17.311,10.59,4.225,4.225,0,0,1,16.146,7.334ZM6.826,5.108H9.335a1.641,1.641,0,0,1,.194,3.271H6.662a1.64,1.64,0,0,1,.164-3.271Zm5.392,11.65H6.826a1.64,1.64,0,0,1-.179-3.271H9.41a3,3,0,0,0,.373-.015H12.2a1.648,1.648,0,0,1,1.643,1.643A1.616,1.616,0,0,1,12.218,16.759Z" transform="translate(0 0)"/>
    </g>
    <path id="Path_654" data-name="Path 654" class="cls-1" d="M1.444,0V-21.467H7.477V0ZM26.508-7.5a7.551,7.551,0,0,1-2.216,5.763,8.66,8.66,0,0,1-6.2,2.1,8.694,8.694,0,0,1-6.153-2.046,7.324,7.324,0,0,1-2.2-5.643,7.56,7.56,0,0,1,1.034-4.007,6.722,6.722,0,0,1,2.945-2.605,10.168,10.168,0,0,1,4.4-.906,9.849,9.849,0,0,1,4.468.949,6.906,6.906,0,0,1,2.9,2.634A7.172,7.172,0,0,1,26.508-7.5Zm-6.117.028q0-2.959-2.266-2.959t-2.266,3.1q0,3.271,2.294,3.271Q20.391-4.064,20.391-7.477ZM44.477-2.025A8.243,8.243,0,0,1,41.85,4.482q-2.627,2.329-7.668,2.329A16,16,0,0,1,31.549,6.6a7.258,7.258,0,0,1-1.827-.481V1.388a8.091,8.091,0,0,0,2.124.906,8.172,8.172,0,0,0,2.167.34,5.03,5.03,0,0,0,3.243-.977A3.156,3.156,0,0,0,38.473-.935v-.892h-.057A4.686,4.686,0,0,1,36.625-.241a5.2,5.2,0,0,1-2.443.595A5.473,5.473,0,0,1,29.75-1.593a8.127,8.127,0,0,1-1.628-5.374,9.609,9.609,0,0,1,.85-4.149,6.474,6.474,0,0,1,2.365-2.768,6.072,6.072,0,0,1,3.342-.97A4.182,4.182,0,0,1,38.417-13h.057v-1.5h6Zm-5.9-5.636A3.255,3.255,0,0,0,38-9.686a1.821,1.821,0,0,0-1.522-.75,1.874,1.874,0,0,0-1.628.906,4.279,4.279,0,0,0-.609,2.421,4.19,4.19,0,0,0,.51,2.223,1.76,1.76,0,0,0,1.614.821,1.87,1.87,0,0,0,1.621-.843,3.88,3.88,0,0,0,.588-2.259ZM57.589-.2a5.877,5.877,0,0,1-1.345.375,12.3,12.3,0,0,1-2.251.177,5.409,5.409,0,0,1-3.944-1.388,5.267,5.267,0,0,1-1.423-3.951v-5.338h-2.28V-14.5h2.28v-2.846l5.947-1.643V-14.5h3.016v4.177H54.573v4.347q0,1.912,1.515,1.912a4.11,4.11,0,0,0,1.5-.312ZM70.376-9.332a4.688,4.688,0,0,0-.92-.283,4.658,4.658,0,0,0-.963-.127q-2.988,0-2.988,3.455V0H59.473V-14.5H65.5v2.549h.057a4.528,4.528,0,0,1,1.572-2.089,4.038,4.038,0,0,1,2.379-.715,2.044,2.044,0,0,1,.864.17ZM80.161,0V-2.209H80.1A4.744,4.744,0,0,1,75.686.354,4.23,4.23,0,0,1,72.472-.864a4.524,4.524,0,0,1-1.161-3.257q0-4.276,5.253-4.956l3.6-.467a1.372,1.372,0,0,0-.637-1.161,2.9,2.9,0,0,0-1.713-.453,11.285,11.285,0,0,0-5.14,1.388v-3.922a13.751,13.751,0,0,1,2.945-.835,17.141,17.141,0,0,1,3.03-.326q3.7,0,5.36,1.579T85.669-8V0ZM76.592-4.928a1.337,1.337,0,0,0,.375.977,1.431,1.431,0,0,0,1.069.382,1.9,1.9,0,0,0,1.536-.708,2.743,2.743,0,0,0,.588-1.812v-.552l-2.039.283Q76.592-6.1,76.592-4.928ZM100.339-.411a5.686,5.686,0,0,1-1.827.552,17.269,17.269,0,0,1-2.875.212,8.842,8.842,0,0,1-4.1-.927,6.768,6.768,0,0,1-2.8-2.6,7.214,7.214,0,0,1-.991-3.752,8.217,8.217,0,0,1,1.055-4.269,6.877,6.877,0,0,1,3.009-2.719,10.323,10.323,0,0,1,4.531-.942,15.852,15.852,0,0,1,2.542.184,3.884,3.884,0,0,1,1.451.425v4.7a4.189,4.189,0,0,0-1.3-.623,5.233,5.233,0,0,0-1.572-.269,3.827,3.827,0,0,0-2.683.843,3.066,3.066,0,0,0-.913,2.372,3.009,3.009,0,0,0,.9,2.329,3.507,3.507,0,0,0,2.471.828,6.154,6.154,0,0,0,3.1-.807ZM112.063,0l-3.229-7.448h-.057V0h-6.032V-21.467h6.032V-7.689h.057l2.931-6.811h6.8l-3.922,6.641L118.79,0Zm13.07-5.537a2.038,2.038,0,0,0,1.076,1.466,4.853,4.853,0,0,0,2.436.531,10.03,10.03,0,0,0,3.993-.807V-.524a14.352,14.352,0,0,1-5.324.878,8.4,8.4,0,0,1-5.9-1.94,6.891,6.891,0,0,1-2.11-5.338,8.808,8.808,0,0,1,.927-4.121,6.674,6.674,0,0,1,2.747-2.8,8.116,8.116,0,0,1,4.014-1.012,7.9,7.9,0,0,1,3.852.878,5.848,5.848,0,0,1,2.428,2.464A7.9,7.9,0,0,1,134.1-7.8v2.266Zm3.625-3.158q0-2.506-1.8-2.506a1.522,1.522,0,0,0-1.26.687,3.427,3.427,0,0,0-.595,1.82Zm18.323-.637a4.688,4.688,0,0,0-.92-.283,4.658,4.658,0,0,0-.963-.127q-2.988,0-2.988,3.455V0h-6.032V-14.5h6.032v2.549h.057a4.528,4.528,0,0,1,1.572-2.089,4.038,4.038,0,0,1,2.379-.715,2.044,2.044,0,0,1,.864.17ZM160.6-4.814A4.429,4.429,0,0,1,158.728-1,8.819,8.819,0,0,1,153.5.354a18.192,18.192,0,0,1-2.414-.2,14.914,14.914,0,0,1-2.344-.481V-4.56a11.539,11.539,0,0,0,4.475,1.189q1.77,0,1.77-.92a.727.727,0,0,0-.411-.63,14.515,14.515,0,0,0-2.152-.828,6.078,6.078,0,0,1-2.8-1.614,3.838,3.838,0,0,1-.878-2.62,4.18,4.18,0,0,1,1.791-3.561,8.4,8.4,0,0,1,5.034-1.31,16,16,0,0,1,4.021.552v4.064a12.162,12.162,0,0,0-1.954-.637,7.893,7.893,0,0,0-1.784-.255,1.942,1.942,0,0,0-.949.2.61.61,0,0,0-.354.552.77.77,0,0,0,.382.666,6.763,6.763,0,0,0,1.529.609,7.1,7.1,0,0,1,3.186,1.671A3.661,3.661,0,0,1,160.6-4.814Z" transform="translate(49.167 50.862)"/>
  </g>
</svg>
