<svg xmlns="http://www.w3.org/2000/svg" viewBox="0 0 11.725 25.225">
  <defs>
    <style>
      .cls-1 {
        fill: #fff;
      }
    </style>
  </defs>
  <path id="Path_655" data-name="Path 655" class="cls-1" d="M5.725-6.8a7.377,7.377,0,0,1-.273-1.154,8.464,8.464,0,0,1-.12-1.41,4.388,4.388,0,0,1,.436-1.974,8.166,8.166,0,0,1,1.085-1.649,16.445,16.445,0,0,1,1.418-1.478q.769-.709,1.418-1.436a8.2,8.2,0,0,0,1.085-1.521,3.583,3.583,0,0,0,.436-1.752,3.206,3.206,0,0,0-.316-1.453,3.066,3.066,0,0,0-.863-1.06,3.785,3.785,0,0,0-1.265-.641,5.306,5.306,0,0,0-1.521-.214,6.628,6.628,0,0,0-5.007,2.273v-3.008a10.057,10.057,0,0,1,5.417-1.641,8.5,8.5,0,0,1,2.444.342,6.015,6.015,0,0,1,2.008,1.017,4.786,4.786,0,0,1,1.359,1.683,5.246,5.246,0,0,1,.5,2.341,5.46,5.46,0,0,1-.444,2.256,8.143,8.143,0,0,1-1.119,1.82,14.434,14.434,0,0,1-1.461,1.547q-.786.718-1.461,1.427a7.836,7.836,0,0,0-1.119,1.478,3.322,3.322,0,0,0-.444,1.692A5.061,5.061,0,0,0,8.1-7.887,10.192,10.192,0,0,0,8.477-6.8ZM7.263.308A1.889,1.889,0,0,1,5.93-.239a1.786,1.786,0,0,1-.564-1.333A1.752,1.752,0,0,1,5.93-2.905a1.823,1.823,0,0,1,1.333-.564A1.823,1.823,0,0,1,8.6-2.905,1.752,1.752,0,0,1,9.16-1.572,1.786,1.786,0,0,1,8.6-.239,1.889,1.889,0,0,1,7.263.308Z" transform="translate(-2.238 24.917)"/>
</svg>
