<svg xmlns="http://www.w3.org/2000/svg" viewBox="0 0 32.844 26.199">
  <defs>
    <style>
      .cls-1 {
        fill: none;
        stroke: #fff;
        stroke-width: 3px;
      }
    </style>
  </defs>
  <g id="Group_521" data-name="Group 521" transform="translate(-609.358 -16)">
    <path id="Path_573" data-name="Path 573" class="cls-1" d="M14.209-27.9c-5.571,0-10.086,3.609-10.086,9.962C4.123-10.714,14.209-4.9,14.209-4.9S24.3-9.937,24.3-17.941C24.3-24.293,19.78-27.9,14.209-27.9Z" transform="translate(616.406 45.402)"/>
    <path id="Path_574" data-name="Path 574" class="cls-1" d="M34.311-26.858A11.178,11.178,0,0,0,29.475-27.9c-5.571,0-10.086,3.609-10.086,9.962C19.389-10.714,29.475-4.9,29.475-4.9a25.642,25.642,0,0,0,4.994-3.473c-2.637-2.377-5.409-5.775-5.409-9.563C29.06-22.295,31.182-25.36,34.311-26.858Z" transform="translate(591.469 45.402)"/>
  </g>
</svg>
